<?xml version="1.0" standalone="no"?>
<!DOCTYPE svg PUBLIC "-//W3C//DTD SVG 20010904//EN"
 "http://www.w3.org/TR/2001/REC-SVG-20010904/DTD/svg10.dtd">
<svg version="1.0" xmlns="http://www.w3.org/2000/svg"
 width="204.000000pt" height="192.000000pt" viewBox="0 0 204.000000 192.000000"
 preserveAspectRatio="xMidYMid meet">

<g transform="translate(0.000000,192.000000) scale(0.100000,-0.100000)"
fill="#000000" stroke="none">
<path d="M1190 1264 c-69 -8 -184 -36 -229 -56 -25 -10 -71 -37 -104 -59 -32
-22 -69 -44 -83 -49 -25 -10 -279 -32 -347 -30 -27 1 -37 -3 -37 -15 0 -9 -16
-30 -36 -47 -54 -48 -78 -102 -79 -178 0 -79 31 -143 85 -174 54 -32 147 -28
230 10 36 16 70 28 77 26 7 -2 13 2 13 8 0 6 30 25 68 42 95 44 153 43 307 -7
66 -21 122 -41 125 -44 20 -22 340 1 369 26 9 8 36 28 61 46 110 80 138 200
73 319 -61 111 -187 173 -373 182 -47 2 -101 2 -120 0z m315 -72 c23 -6 30
-14 30 -33 0 -21 -5 -24 -38 -27 l-39 -3 6 -72 c3 -40 7 -124 8 -187 3 -105 1
-115 -16 -118 -28 -6 -36 15 -36 98 0 41 -3 119 -7 173 l-6 97 -92 0 c-101 0
-104 2 -105 69 l0 24 133 -6 c72 -4 146 -10 162 -15z m-331 -40 c12 -41 -1
-52 -62 -52 -84 0 -85 -3 -81 -159 l4 -136 -30 0 -30 0 -5 135 -5 135 -32 3
c-29 3 -33 7 -33 32 0 16 4 31 10 35 26 16 161 44 205 42 47 -2 50 -4 59 -35z
m210 -84 c15 -56 9 -66 -44 -73 -62 -8 -71 -35 -12 -35 61 0 67 -9 70 -110 5
-105 5 -105 -98 -105 l-65 0 -3 38 c-3 34 -1 38 27 43 38 8 55 27 46 54 -4 13
-15 20 -30 20 -39 0 -55 25 -55 86 0 77 27 104 103 104 48 0 55 -3 61 -22z
m-201 -9 c3 -12 11 -82 18 -156 9 -98 10 -136 1 -145 -18 -18 -39 -1 -46 39
-14 82 -18 94 -29 90 -7 -2 -14 -23 -17 -48 -4 -36 -9 -44 -25 -44 -19 0 -20
8 -23 115 -4 164 -3 166 79 169 30 1 38 -3 42 -20z m-483 1 c0 -5 -4 -10 -10
-10 -5 0 -10 5 -10 10 0 6 5 10 10 10 6 0 10 -4 10 -10z m824 4 c25 -10 19
-34 -8 -34 -29 0 -44 19 -25 31 17 11 14 10 33 3z m-599 -29 c0 -13 -8 -21
-22 -23 -27 -4 -30 -17 -6 -26 15 -6 14 -8 -2 -20 -16 -12 -15 -13 14 -19 33
-7 42 -31 15 -41 -22 -9 -92 -7 -98 2 -2 4 -6 37 -7 72 -3 61 -1 65 22 71 13
4 38 7 54 6 23 -2 30 -7 30 -22z m735 13 c0 -5 0 -21 0 -37 0 -23 -6 -30 -26
-35 -36 -9 -30 -50 9 -54 22 -3 27 -8 27 -32 0 -23 -6 -31 -24 -36 -28 -7 -67
3 -78 20 -4 6 -8 41 -8 77 0 65 10 91 40 102 20 8 61 4 60 -5z m-989 -27 c15
-19 29 -78 44 -188 8 -62 -16 -83 -95 -83 -47 0 -61 4 -69 18 -13 24 -34 218
-26 241 13 43 114 52 146 12z m109 -28 c0 -27 3 -64 6 -84 l6 -36 70 5 70 5
-4 -29 c-3 -29 -3 -29 -93 -36 -49 -5 -92 -5 -96 0 -6 6 -14 171 -10 210 0 6
12 12 26 12 23 0 25 -4 25 -47z m758 -86 c2 -81 0 -98 -13 -103 -23 -9 -26 -3
-32 79 -7 91 1 130 25 125 14 -3 17 -18 20 -101z m-1038 53 c0 -16 1 -33 3
-37 1 -5 -9 -9 -23 -11 -76 -8 -99 -32 -32 -32 61 0 67 -9 67 -97 l0 -78 -69
-5 c-63 -5 -69 -3 -79 17 -14 31 -3 51 30 55 52 6 39 57 -14 58 -27 0 -43 27
-43 70 0 64 30 88 113 89 46 1 47 0 47 -29z"/>
<path d="M1120 1001 c0 -5 -3 -16 -6 -25 -4 -11 -1 -16 10 -16 18 0 22 35 6
45 -5 3 -10 2 -10 -4z"/>
<path d="M594 926 c-12 -31 1 -51 34 -54 26 -3 32 0 32 17 0 39 -54 69 -66 37z"/>
<path d="M761 1161 c-10 -17 -9 -21 3 -21 20 0 31 19 18 32 -7 7 -14 3 -21
-11z"/>
<path d="M1740 995 c0 -8 7 -15 15 -15 8 0 15 7 15 15 0 8 -7 15 -15 15 -8 0
-15 -7 -15 -15z"/>
<path d="M908 743 c7 -3 16 -2 19 1 4 3 -2 6 -13 5 -11 0 -14 -3 -6 -6z"/>
<path d="M295 650 c3 -5 13 -10 21 -10 8 0 14 5 14 10 0 6 -9 10 -21 10 -11 0
-17 -4 -14 -10z"/>
</g>
</svg>
